<?xml version="1.0" encoding="UTF-8"?>
<!-- Centralized Mathematics Diagrams File -->
<!-- Generated from mathematics_questions_jamb_2010.json -->
<svg width="800" height="5950" xmlns="http://www.w3.org/2000/svg">
  <style>
    .question-title { font: bold 16px sans-serif; fill: #333; }
    .diagram-container { stroke: #ccc; stroke-width: 1; }
  </style>
  <!-- Question 1 -->
  <text x="20" y="20" class="question-title">Question ID: 1</text>
<g transform="translate(20, 40) scale(0.8)">
      <!-- Triangle -->
      <polygon points="100,150 200,150 150,80" fill="none" stroke="black" stroke-width="2"/>
      
      <!-- Right angle marker -->
      <line x1="145" y1="150" x2="145" y2="145" stroke="black" stroke-width="2"/>
      <line x1="145" y1="145" x2="150" y2="145" stroke="black" stroke-width="2"/>
      
      <!-- Labels -->
      <text x="90" y="155" font-size="14">3</text>
      <text x="175" y="155" font-size="14">4</text>
      <text x="140" y="100" font-size="14">5</text>
      <text x="145" y="165" font-size="14">Adjacent</text>
      <text x="175" y="125" font-size="14">Hypotenuse</text>
      <text x="115" y="125" font-size="14">Opposite</text>
    </g>

  <!-- Question 4 -->
  <text x="20" y="370" class="question-title">Question ID: 4</text>
<g transform="translate(20, 390) scale(0.8)">
      <!-- Triangle -->
      <polygon points="100,150 200,150 150,80" fill="none" stroke="black" stroke-width="2"/>
      
      <!-- Right angle marker -->
      <line x1="145" y1="150" x2="145" y2="145" stroke="black" stroke-width="2"/>
      <line x1="145" y1="145" x2="150" y2="145" stroke="black" stroke-width="2"/>
      
      <!-- Labels -->
      <text x="90" y="155" font-size="14">3</text>
      <text x="175" y="155" font-size="14">4</text>
      <text x="140" y="100" font-size="14">5</text>
      <text x="145" y="165" font-size="14">Adjacent</text>
      <text x="175" y="125" font-size="14">Hypotenuse</text>
      <text x="115" y="125" font-size="14">Opposite</text>
    </g>

  <!-- Question 5 -->
  <text x="20" y="720" class="question-title">Question ID: 5</text>
<g transform="translate(20, 740) scale(0.8)">
      <!-- Triangle -->
      <polygon points="100,150 200,150 150,80" fill="none" stroke="black" stroke-width="2"/>
      
      <!-- Right angle marker -->
      <line x1="145" y1="150" x2="145" y2="145" stroke="black" stroke-width="2"/>
      <line x1="145" y1="145" x2="150" y2="145" stroke="black" stroke-width="2"/>
      
      <!-- Labels -->
      <text x="90" y="155" font-size="14">3</text>
      <text x="175" y="155" font-size="14">4</text>
      <text x="140" y="100" font-size="14">5</text>
      <text x="145" y="165" font-size="14">Adjacent</text>
      <text x="175" y="125" font-size="14">Hypotenuse</text>
      <text x="115" y="125" font-size="14">Opposite</text>
    </g>

  <!-- Question 6 -->
  <text x="20" y="1070" class="question-title">Question ID: 6</text>

    <g transform="translate(20, 1090) scale(0.8)">
      <!-- Circle representing compass -->
      <circle cx="150" cy="150" r="120" stroke="black" stroke-width="2" fill="white"/>
      
      <!-- North, South, East, West labels -->
      <text x="150" y="40" text-anchor="middle" font-size="14" font-weight="bold">N</text>
      <text x="150" y="275" text-anchor="middle" font-size="14" font-weight="bold">S</text>
      <text x="265" y="155" text-anchor="middle" font-size="14" font-weight="bold">E</text>
      <text x="35" y="155" text-anchor="middle" font-size="14" font-weight="bold">W</text>
      
      <!-- Cardinal direction lines -->
      <line x1="150" y1="30" x2="150" y2="270" stroke="gray" stroke-width="1" stroke-dasharray="5,5"/>
      <line x1="30" y1="150" x2="270" y2="150" stroke="gray" stroke-width="1" stroke-dasharray="5,5"/>
      <line x1="60" y1="60" x2="240" y2="240" stroke="gray" stroke-width="1" stroke-dasharray="5,5"/>
      <line x1="240" y1="60" x2="60" y2="240" stroke="gray" stroke-width="1" stroke-dasharray="5,5"/>
      
      <!-- Bearing line -->
      <line x1="150" y1="150" x2="220.71067811865476" y2="220.71067811865476" stroke="red" stroke-width="3"/>
      
      <!-- Bearing angle arc -->
      <path d="M160,140 A10 10 0 0 1 164.14213562373095,164.14213562373095" fill="none" stroke="blue" stroke-width="2"/>
      
      <!-- Bearing label -->
      <text x="186.95518130045147" y="134.6926627053964" font-size="12" fill="blue">135°</text>
    </g>
    

  <!-- Question 7 -->
  <text x="20" y="1420" class="question-title">Question ID: 7</text>
<g transform="translate(20, 1440) scale(0.8)">
      <!-- Triangle -->
      <polygon points="100,150 200,150 150,80" fill="none" stroke="black" stroke-width="2"/>
      
      <!-- Right angle marker -->
      <line x1="145" y1="150" x2="145" y2="145" stroke="black" stroke-width="2"/>
      <line x1="145" y1="145" x2="150" y2="145" stroke="black" stroke-width="2"/>
      
      <!-- Labels -->
      <text x="90" y="155" font-size="14">3</text>
      <text x="175" y="155" font-size="14">4</text>
      <text x="140" y="100" font-size="14">5</text>
      <text x="145" y="165" font-size="14">Adjacent</text>
      <text x="175" y="125" font-size="14">Hypotenuse</text>
      <text x="115" y="125" font-size="14">Opposite</text>
    </g>

  <!-- Question 8 -->
  <text x="20" y="1770" class="question-title">Question ID: 8</text>

    <g transform="translate(20, 1790) scale(0.8)">
      <!-- Triangle -->
      <polygon points="100,150 200,150 150,80" fill="none" stroke="black" stroke-width="2"/>
      
      <!-- Right angle marker -->
      <line x1="145" y1="150" x2="145" y2="145" stroke="black" stroke-width="2"/>
      <line x1="145" y1="145" x2="150" y2="145" stroke="black" stroke-width="2"/>
      
      <!-- Labels -->
      <text x="90" y="155" font-size="14">3</text>
      <text x="175" y="155" font-size="14">4</text>
      <text x="140" y="100" font-size="14">5</text>
      <text x="145" y="165" font-size="14">Adjacent</text>
      <text x="175" y="125" font-size="14">Hypotenuse</text>
      <text x="115" y="125" font-size="14">Opposite</text>
    </g>
    

  <!-- Question 9 -->
  <text x="20" y="2120" class="question-title">Question ID: 9</text>
<g transform="translate(20, 2140) scale(0.8)">
      <!-- Triangle -->
      <polygon points="100,150 200,150 150,80" fill="none" stroke="black" stroke-width="2"/>
      
      <!-- Right angle marker -->
      <line x1="145" y1="150" x2="145" y2="145" stroke="black" stroke-width="2"/>
      <line x1="145" y1="145" x2="150" y2="145" stroke="black" stroke-width="2"/>
      
      <!-- Labels -->
      <text x="90" y="155" font-size="14">3</text>
      <text x="175" y="155" font-size="14">4</text>
      <text x="140" y="100" font-size="14">5</text>
      <text x="145" y="165" font-size="14">Adjacent</text>
      <text x="175" y="125" font-size="14">Hypotenuse</text>
      <text x="115" y="125" font-size="14">Opposite</text>
    </g>

  <!-- Question 10 -->
  <text x="20" y="2470" class="question-title">Question ID: 10</text>
<g transform="translate(20, 2490) scale(0.8)">
      <!-- Triangle -->
      <polygon points="100,150 200,150 150,80" fill="none" stroke="black" stroke-width="2"/>
      
      <!-- Right angle marker -->
      <line x1="145" y1="150" x2="145" y2="145" stroke="black" stroke-width="2"/>
      <line x1="145" y1="145" x2="150" y2="145" stroke="black" stroke-width="2"/>
      
      <!-- Labels -->
      <text x="90" y="155" font-size="14">3</text>
      <text x="175" y="155" font-size="14">4</text>
      <text x="140" y="100" font-size="14">5</text>
      <text x="145" y="165" font-size="14">Adjacent</text>
      <text x="175" y="125" font-size="14">Hypotenuse</text>
      <text x="115" y="125" font-size="14">Opposite</text>
    </g>

  <!-- Question 11 -->
  <text x="20" y="2820" class="question-title">Question ID: 11</text>
<g transform="translate(20, 2840) scale(0.8)">
      <!-- Triangle -->
      <polygon points="100,150 200,150 150,80" fill="none" stroke="black" stroke-width="2"/>
      
      <!-- Right angle marker -->
      <line x1="145" y1="150" x2="145" y2="145" stroke="black" stroke-width="2"/>
      <line x1="145" y1="145" x2="150" y2="145" stroke="black" stroke-width="2"/>
      
      <!-- Labels -->
      <text x="90" y="155" font-size="14">3</text>
      <text x="175" y="155" font-size="14">4</text>
      <text x="140" y="100" font-size="14">5</text>
      <text x="145" y="165" font-size="14">Adjacent</text>
      <text x="175" y="125" font-size="14">Hypotenuse</text>
      <text x="115" y="125" font-size="14">Opposite</text>
    </g>

  <!-- Question 12 -->
  <text x="20" y="3170" class="question-title">Question ID: 12</text>

    <g transform="translate(20, 3190) scale(0.8)">
      <!-- Circle -->
      <circle cx="150" cy="150" r="100" stroke="black" stroke-width="2" fill="none"/>
      
      <!-- Chord -->
      <line x1="100" y1="200" x2="200" y2="200" stroke="red" stroke-width="3"/>
      
      <!-- Perpendicular from center to chord -->
      <line x1="150" y1="150" x2="150" y2="200" stroke="blue" stroke-width="2" stroke-dasharray="5,5"/>
      
      <!-- Radius to one end of chord -->
      <line x1="150" y1="150" x2="200" y2="200" stroke="green" stroke-width="2"/>
      
      <!-- Labels -->
      <text x="155" y="180" font-size="12" fill="blue">8 cm</text>
      <text x="175" y="205" font-size="12" fill="red">12 cm</text>
      <text x="180" y="180" font-size="12" fill="green">r = ?</text>
      <text x="155" y="145" font-size="12" fill="black">O</text>
      <text x="195" y="205" font-size="12" fill="black">A</text>
      <text x="95" y="205" font-size="12" fill="black">B</text>
      <text x="155" y="205" font-size="12" fill="black">M</text>
    </g>
    

  <!-- Question 13 -->
  <text x="20" y="3520" class="question-title">Question ID: 13</text>
<g transform="translate(20, 3540) scale(0.8)">
      <!-- Circle -->
      <circle cx="150" cy="150" r="100" stroke="black" stroke-width="2" fill="none"/>
      
      <!-- Chord -->
      <line x1="100" y1="200" x2="200" y2="200" stroke="red" stroke-width="3"/>
      
      <!-- Perpendicular from center to chord -->
      <line x1="150" y1="150" x2="150" y2="200" stroke="blue" stroke-width="2" stroke-dasharray="5,5"/>
      
      <!-- Radius to one end of chord -->
      <line x1="150" y1="150" x2="200" y2="200" stroke="green" stroke-width="2"/>
      
      <!-- Labels -->
      <text x="155" y="180" font-size="12" fill="blue">8 cm</text>
      <text x="175" y="205" font-size="12" fill="red">12 cm</text>
      <text x="180" y="180" font-size="12" fill="green">r = ?</text>
      <text x="155" y="145" font-size="12" fill="black">O</text>
      <text x="195" y="205" font-size="12" fill="black">A</text>
      <text x="95" y="205" font-size="12" fill="black">B</text>
      <text x="155" y="205" font-size="12" fill="black">M</text>
    </g>

  <!-- Question 14 -->
  <text x="20" y="3870" class="question-title">Question ID: 14</text>
<g transform="translate(20, 3890) scale(0.8)">
      <!-- Triangle -->
      <polygon points="100,150 200,150 150,80" fill="none" stroke="black" stroke-width="2"/>
      
      <!-- Right angle marker -->
      <line x1="145" y1="150" x2="145" y2="145" stroke="black" stroke-width="2"/>
      <line x1="145" y1="145" x2="150" y2="145" stroke="black" stroke-width="2"/>
      
      <!-- Labels -->
      <text x="90" y="155" font-size="14">3</text>
      <text x="175" y="155" font-size="14">4</text>
      <text x="140" y="100" font-size="14">5</text>
      <text x="145" y="165" font-size="14">Adjacent</text>
      <text x="175" y="125" font-size="14">Hypotenuse</text>
      <text x="115" y="125" font-size="14">Opposite</text>
    </g>

  <!-- Question 15 -->
  <text x="20" y="4220" class="question-title">Question ID: 15</text>
<g transform="translate(20, 4240) scale(0.8)">
      <!-- Triangle -->
      <polygon points="100,150 200,150 150,80" fill="none" stroke="black" stroke-width="2"/>
      
      <!-- Right angle marker -->
      <line x1="145" y1="150" x2="145" y2="145" stroke="black" stroke-width="2"/>
      <line x1="145" y1="145" x2="150" y2="145" stroke="black" stroke-width="2"/>
      
      <!-- Labels -->
      <text x="90" y="155" font-size="14">3</text>
      <text x="175" y="155" font-size="14">4</text>
      <text x="140" y="100" font-size="14">5</text>
      <text x="145" y="165" font-size="14">Adjacent</text>
      <text x="175" y="125" font-size="14">Hypotenuse</text>
      <text x="115" y="125" font-size="14">Opposite</text>
    </g>

  <!-- Question 16 -->
  <text x="20" y="4570" class="question-title">Question ID: 16</text>
<g transform="translate(20, 4590) scale(0.8)">
      <!-- Triangle -->
      <polygon points="100,150 200,150 150,80" fill="none" stroke="black" stroke-width="2"/>
      
      <!-- Right angle marker -->
      <line x1="145" y1="150" x2="145" y2="145" stroke="black" stroke-width="2"/>
      <line x1="145" y1="145" x2="150" y2="145" stroke="black" stroke-width="2"/>
      
      <!-- Labels -->
      <text x="90" y="155" font-size="14">3</text>
      <text x="175" y="155" font-size="14">4</text>
      <text x="140" y="100" font-size="14">5</text>
      <text x="145" y="165" font-size="14">Adjacent</text>
      <text x="175" y="125" font-size="14">Hypotenuse</text>
      <text x="115" y="125" font-size="14">Opposite</text>
    </g>

  <!-- Question 17 -->
  <text x="20" y="4920" class="question-title">Question ID: 17</text>

    <g transform="translate(20, 4940) scale(0.8)">
      <!-- Quadrilateral -->
      <polygon points="50,150 120,80 220,80 250,150" fill="none" stroke="black" stroke-width="2"/>
      
      <!-- Angles with ratio labels -->
      <text x="60" y="140" font-size="12">2x</text>
      <text x="110" y="90" font-size="12">3x</text>
      <text x="210" y="90" font-size="12">4x</text>
      <text x="240" y="140" font-size="12">6x</text>
    </g>
    

  <!-- Question 19 -->
  <text x="20" y="5270" class="question-title">Question ID: 19</text>

    <g transform="translate(20, 5290) scale(0.8)">
      <!-- Cone -->
      <path d="M100,50 L30,200 Q100,230 170,200 Z" fill="none" stroke="black" stroke-width="2"/>
      
      <!-- Base circle (ellipse) -->
      <ellipse cx="100" cy="200" rx="70" ry="15" fill="none" stroke="black" stroke-width="2"/>
      
      <!-- Height line -->
      <line x1="100" y1="50" x2="100" y2="200" stroke="red" stroke-width="2" stroke-dasharray="5,5"/>
      
      <!-- Radius line -->
      <line x1="100" y1="200" x2="170" y2="200" stroke="blue" stroke-width="2"/>
      
      <!-- Labels -->
      <text x="105" y="130" font-size="12" fill="red">h=12cm</text>
      <text x="130" y="215" font-size="12" fill="blue">r=7cm</text>
    </g>
    

  <!-- Question 20 -->
  <text x="20" y="5620" class="question-title">Question ID: 20</text>
<g transform="translate(20, 5640) scale(0.8)">
      <!-- Triangle -->
      <polygon points="100,150 200,150 150,80" fill="none" stroke="black" stroke-width="2"/>
      
      <!-- Right angle marker -->
      <line x1="145" y1="150" x2="145" y2="145" stroke="black" stroke-width="2"/>
      <line x1="145" y1="145" x2="150" y2="145" stroke="black" stroke-width="2"/>
      
      <!-- Labels -->
      <text x="90" y="155" font-size="14">3</text>
      <text x="175" y="155" font-size="14">4</text>
      <text x="140" y="100" font-size="14">5</text>
      <text x="145" y="165" font-size="14">Adjacent</text>
      <text x="175" y="125" font-size="14">Hypotenuse</text>
      <text x="115" y="125" font-size="14">Opposite</text>
    </g>

</svg>